<?xml version="1.0" standalone="no"?>
<!DOCTYPE svg PUBLIC "-//W3C//DTD SVG 20010904//EN"
 "http://www.w3.org/TR/2001/REC-SVG-20010904/DTD/svg10.dtd">
<svg version="1.0" xmlns="http://www.w3.org/2000/svg"
 width="1024.000000pt" height="1024.000000pt" viewBox="0 0 1024.000000 1024.000000"
 preserveAspectRatio="xMidYMid meet">
<metadata>
Created by potrace 1.11, written by Peter Selinger 2001-2013
</metadata>
<g transform="translate(0.000000,1024.000000) scale(0.100000,-0.100000)"
fill="#000000" stroke="none">
<path d="M6069 8345 c-4 -3 -44 -10 -90 -15 -202 -23 -411 -64 -461 -91 -10
-5 -27 -9 -37 -9 -11 0 -23 -4 -26 -10 -3 -5 -17 -10 -31 -10 -13 0 -24 -4
-24 -8 0 -5 -19 -15 -42 -22 -24 -7 -47 -17 -52 -22 -6 -4 -20 -8 -32 -8 -13
0 -25 -4 -28 -9 -3 -5 -36 -21 -73 -36 -38 -14 -88 -39 -113 -55 -25 -15 -65
-39 -90 -52 -93 -51 -125 -71 -130 -77 -3 -4 -31 -24 -62 -44 -31 -21 -60 -42
-64 -48 -3 -6 -20 -19 -36 -29 -17 -10 -49 -33 -71 -52 -67 -54 -317 -308
-378 -383 -62 -77 -182 -252 -205 -300 -8 -16 -23 -41 -34 -55 -17 -23 -21
-24 -42 -11 -100 61 -275 136 -403 172 -71 20 -104 23 -300 23 -151 1 -236 -3
-270 -12 -113 -30 -132 -36 -171 -53 -22 -11 -45 -19 -52 -19 -10 0 -157 -74
-231 -116 -30 -17 -128 -92 -157 -119 -6 -5 -26 -24 -45 -40 -19 -17 -47 -46
-63 -65 -15 -19 -46 -54 -67 -77 -21 -23 -39 -45 -39 -49 0 -4 -11 -21 -24
-39 -29 -38 -136 -244 -136 -262 0 -7 -9 -32 -19 -56 -21 -47 -27 -69 -44
-174 -7 -40 -17 -77 -22 -83 -6 -5 -49 -14 -95 -20 -118 -14 -230 -35 -265
-50 -11 -5 -31 -11 -45 -13 -84 -17 -264 -83 -342 -127 -9 -5 -52 -28 -95 -51
-43 -23 -97 -54 -120 -70 -23 -16 -45 -29 -48 -29 -8 0 -56 -38 -118 -92 -23
-21 -46 -38 -50 -38 -17 0 -254 -246 -313 -324 -62 -82 -203 -304 -204 -321 0
-5 -22 -54 -49 -110 -27 -55 -51 -109 -54 -120 -3 -11 -16 -49 -29 -85 -13
-36 -30 -92 -37 -125 -7 -33 -18 -85 -24 -115 -17 -78 -16 -685 1 -762 6 -32
17 -84 23 -115 6 -32 15 -67 19 -78 5 -11 18 -49 30 -85 12 -36 30 -82 41
-103 10 -22 19 -45 19 -53 0 -8 4 -14 8 -14 4 0 16 -21 25 -47 22 -61 107
-208 177 -308 124 -175 335 -387 490 -492 117 -79 200 -133 204 -133 3 0 45
-18 93 -41 49 -23 97 -45 108 -49 11 -4 36 -15 55 -23 79 -34 108 -44 165 -56
33 -7 83 -19 110 -26 178 -47 -3 -45 3713 -45 3750 0 3533 -3 3707 51 39 12
82 23 98 26 15 3 30 9 33 14 3 5 12 9 20 9 9 0 35 14 59 30 24 17 50 30 57 31
7 0 36 14 63 30 28 16 64 35 81 43 17 8 53 32 80 53 27 21 69 52 93 68 41 28
217 196 251 241 8 10 38 48 65 84 54 69 122 179 152 245 10 22 20 42 23 45 19
18 105 247 119 315 26 128 33 181 38 340 8 247 -17 455 -74 610 -14 39 -27 80
-30 93 -3 12 -9 22 -14 22 -5 0 -9 6 -9 12 0 37 -135 279 -206 368 -24 30 -54
68 -66 84 -27 35 -32 40 -135 136 -96 91 -107 100 -195 159 -122 81 -151 97
-283 155 -16 7 -41 18 -55 24 -14 6 -56 21 -95 32 -38 12 -80 26 -93 31 -13 5
-31 9 -41 9 -38 0 -42 20 -26 151 8 68 15 205 15 303 0 217 -13 340 -61 566
-28 136 -37 168 -68 243 -5 12 -15 40 -22 62 -7 22 -18 54 -25 70 -7 17 -29
71 -49 120 -21 50 -46 102 -56 117 -11 14 -19 31 -19 38 0 6 -18 38 -40 70
-22 32 -40 63 -40 68 0 5 -18 34 -40 66 -22 31 -40 59 -40 63 0 3 -18 27 -40
53 -22 26 -40 52 -40 58 0 6 -3 12 -7 14 -5 2 -37 39 -73 83 -100 123 -318
332 -394 379 -17 10 -35 25 -39 32 -4 8 -21 21 -38 29 -16 9 -53 34 -82 55
-29 22 -55 40 -59 40 -3 0 -43 22 -87 49 -85 52 -255 137 -296 147 -14 3 -28
10 -31 15 -3 5 -13 9 -23 9 -9 0 -36 9 -59 20 -22 11 -46 20 -52 20 -5 0 -29
8 -53 19 -54 24 -250 71 -347 83 -41 5 -106 14 -145 19 -82 12 -527 24 -536
14z m531 -389 c123 -17 412 -93 490 -128 19 -9 64 -27 100 -39 36 -13 67 -27
68 -31 2 -4 10 -8 18 -8 8 0 14 -4 14 -10 0 -5 6 -10 14 -10 36 0 284 -157
412 -261 186 -151 430 -434 523 -608 8 -14 20 -37 28 -51 78 -142 154 -327
195 -475 67 -239 81 -347 81 -615 0 -210 -6 -296 -32 -412 -6 -27 -16 -69 -22
-95 -20 -91 -20 -108 -4 -146 18 -44 78 -107 118 -125 15 -6 45 -12 65 -12 45
0 230 -37 254 -50 10 -6 27 -10 37 -10 11 0 23 -4 26 -10 3 -5 15 -10 26 -10
50 0 270 -128 378 -219 141 -118 250 -253 318 -391 56 -113 83 -177 83 -194 0
-8 4 -17 9 -20 5 -3 11 -18 14 -33 3 -16 11 -48 17 -73 24 -97 33 -181 33
-310 0 -147 -10 -257 -24 -266 -5 -3 -9 -17 -9 -31 0 -28 -14 -76 -37 -130 -8
-18 -25 -63 -39 -100 -14 -38 -39 -89 -55 -116 -16 -26 -29 -51 -29 -55 -1 -7
-57 -81 -137 -180 -46 -58 -138 -141 -198 -181 -22 -14 -42 -28 -45 -31 -37
-38 -161 -103 -285 -149 -33 -13 -68 -27 -77 -32 -10 -5 -29 -9 -42 -9 -14 0
-27 -4 -30 -9 -7 -11 -59 -19 -191 -30 -128 -11 -6658 -12 -6785 -1 -125 11
-183 20 -195 31 -5 5 -19 9 -32 9 -13 0 -31 4 -41 9 -9 5 -37 15 -62 21 -78
21 -288 105 -300 120 -3 3 -25 18 -50 32 -61 35 -147 92 -190 126 -60 46 -277
268 -307 312 -15 24 -35 53 -43 65 -64 94 -92 142 -129 218 -22 48 -41 92 -41
97 0 6 -4 18 -10 28 -16 30 -62 165 -72 212 -5 25 -13 68 -19 95 -18 90 -28
298 -19 420 14 186 45 326 100 450 10 22 24 57 30 78 6 21 29 70 49 110 33 63
58 103 158 252 29 44 164 188 228 244 96 84 105 91 112 91 4 0 21 13 38 29 32
32 332 191 359 191 9 0 24 4 34 9 112 57 273 88 509 100 165 8 206 20 250 76
40 50 53 101 53 210 1 92 16 184 33 201 4 4 7 15 7 24 0 9 9 35 20 58 11 22
20 46 20 52 0 13 34 78 72 135 37 58 151 182 197 215 21 16 42 34 46 40 5 9
153 83 220 110 174 71 397 81 580 28 166 -49 280 -111 398 -216 74 -66 116
-79 203 -66 38 5 55 15 89 51 24 24 51 65 60 91 35 93 158 302 245 416 25 32
53 70 62 84 41 62 265 277 383 368 103 79 203 141 305 191 30 14 66 34 80 43
45 30 226 97 367 135 54 15 107 31 118 35 25 11 68 18 168 29 42 4 81 11 84
15 8 8 486 1 553 -8z"/>
<path d="M6360 1418 c0 -7 0 -219 -1 -472 0 -273 3 -462 9 -468 5 -5 33 -8 63
-6 l54 3 3 128 c1 70 6 127 9 127 9 0 165 -163 211 -220 l34 -41 81 3 c46 2
82 8 84 14 2 6 -67 81 -154 168 l-157 157 108 107 c59 59 112 116 118 127 6
11 22 30 36 41 36 32 20 44 -54 44 l-66 0 -99 -102 c-55 -57 -108 -115 -117
-130 -9 -16 -20 -28 -24 -28 -4 0 -8 123 -8 274 0 308 6 286 -81 286 -33 0
-49 -4 -49 -12z"/>
<path d="M835 1140 c-3 -5 -17 -10 -31 -10 -13 0 -24 -4 -24 -10 0 -5 -8 -10
-19 -10 -27 0 -38 -18 -43 -72 -8 -68 -1 -72 68 -39 97 47 138 56 183 42 43
-12 81 -55 81 -91 0 -12 4 -30 10 -40 10 -19 1 -22 -155 -36 -33 -3 -64 -10
-69 -15 -6 -5 -19 -9 -30 -9 -12 0 -42 -16 -68 -35 -36 -26 -51 -46 -68 -92
-20 -51 -21 -64 -11 -112 6 -30 14 -57 18 -60 5 -3 14 -18 22 -33 8 -16 23
-28 33 -28 10 0 18 -4 18 -8 0 -26 190 -46 205 -22 3 6 16 10 28 10 13 0 29 9
37 20 19 26 36 26 43 -1 5 -18 12 -20 64 -17 l58 3 3 240 c2 196 0 249 -13
290 -19 62 -66 114 -120 135 -34 13 -212 13 -220 0z m222 -415 c-7 -76 -45
-142 -86 -152 -14 -3 -32 -10 -38 -16 -19 -14 -79 1 -113 29 -63 54 -23 164
59 164 11 0 23 5 26 10 3 6 30 10 58 10 29 0 59 5 67 10 29 18 33 10 27 -55z"/>
<path d="M2855 1109 l-44 -40 -3 28 c-3 27 -4 28 -68 28 l-65 0 0 -325 0 -325
65 0 65 0 2 205 c2 113 7 214 12 225 5 11 15 34 22 52 20 49 124 95 144 63 9
-14 55 -12 56 3 2 22 -2 71 -7 100 -5 26 -8 27 -70 27 -61 0 -66 -2 -109 -41z"/>
<path d="M3263 1136 c-13 -7 -31 -20 -40 -28 -10 -8 -25 -17 -34 -21 -19 -6
-99 -121 -99 -141 0 -8 -4 -18 -10 -21 -12 -8 -14 -238 -1 -263 4 -9 19 -39
32 -65 25 -51 80 -107 104 -107 8 0 15 -4 15 -8 0 -27 259 -48 275 -22 3 5 15
10 26 10 10 0 19 5 19 10 0 6 6 10 13 10 29 0 48 36 45 86 -3 54 -15 63 -44
35 -11 -10 -38 -24 -60 -31 -21 -7 -47 -16 -56 -21 -24 -12 -85 -11 -93 1 -3
6 -17 10 -31 10 -50 0 -104 75 -119 162 l-6 38 223 2 223 3 3 83 c2 46 -1 89
-6 95 -5 7 -12 24 -15 38 -9 37 -80 119 -103 119 -8 0 -14 3 -14 8 0 30 -199
44 -247 18z m160 -101 c42 -17 87 -68 87 -98 0 -12 3 -32 6 -44 l6 -23 -156 0
-156 0 0 28 c1 30 62 120 88 128 9 3 24 9 32 14 23 13 54 12 93 -5z"/>
<path d="M4001 1139 c-13 -5 -36 -18 -51 -29 -35 -25 -36 -25 -43 0 -4 17 -14
20 -65 20 -45 0 -61 -4 -66 -16 -3 -9 -6 -152 -6 -318 0 -222 3 -305 12 -314
19 -19 114 -16 122 4 3 9 6 112 6 230 0 153 4 221 13 237 31 56 84 97 125 97
30 0 80 -29 102 -59 18 -26 20 -47 22 -272 l3 -244 65 0 65 0 5 225 c6 253 10
273 80 323 43 31 73 34 117 12 65 -32 67 -45 73 -315 l5 -245 60 0 60 0 3 257
2 256 -29 54 c-16 29 -37 58 -47 63 -10 6 -27 18 -38 28 -16 13 -38 17 -105
17 -92 0 -109 -7 -181 -68 l-35 -30 -35 37 c-19 20 -45 42 -58 49 -25 14 -146
15 -181 1z"/>
<path d="M5045 1133 c-22 -8 -47 -20 -56 -28 -8 -8 -20 -15 -25 -15 -12 0 -90
-100 -103 -131 -17 -44 -34 -166 -27 -200 4 -19 9 -50 12 -69 3 -19 12 -49 19
-65 18 -40 109 -135 129 -135 9 0 16 -4 16 -10 0 -5 9 -10 19 -10 11 0 23 -4
26 -10 16 -25 255 -5 255 22 0 4 8 8 18 8 9 0 40 24 68 53 68 70 94 148 94
280 0 51 -4 97 -8 103 -5 5 -14 28 -22 51 -16 52 -84 123 -144 151 -37 18 -63
22 -138 21 -53 -1 -110 -8 -133 -16z m173 -91 c64 -32 80 -45 106 -86 27 -43
29 -54 30 -148 1 -116 -10 -156 -59 -204 -39 -39 -135 -65 -166 -46 -10 7 -27
12 -38 12 -23 0 -101 85 -101 111 0 10 -4 21 -10 24 -14 9 -12 147 3 198 28
95 161 174 235 139z"/>
<path d="M5839 1132 c-15 -9 -41 -27 -58 -40 l-31 -23 0 30 0 31 -60 0 -60 0
2 -327 3 -328 55 0 55 0 3 200 c1 113 7 204 12 209 6 6 10 21 10 34 0 33 34
86 65 100 14 7 36 17 49 23 14 7 33 8 47 3 13 -4 30 -9 37 -10 17 -3 51 -33
65 -59 8 -13 14 -105 17 -260 l5 -240 65 0 65 0 -1 230 c0 224 -8 315 -25 315
-5 0 -9 7 -9 16 0 17 -62 82 -97 102 -34 19 -182 15 -214 -6z"/>
<path d="M7493 1138 c-13 -6 -23 -15 -23 -20 0 -4 -7 -8 -17 -8 -25 0 -81 -47
-110 -93 -40 -63 -73 -171 -73 -237 0 -33 5 -62 10 -65 6 -3 10 -19 10 -36 0
-43 29 -88 108 -166 26 -27 51 -43 67 -43 13 0 27 -4 30 -10 3 -6 48 -10 101
-10 82 0 101 3 144 26 49 26 50 27 50 74 0 27 -5 52 -11 56 -6 3 -33 -6 -60
-20 -53 -29 -149 -47 -149 -27 0 6 -13 11 -28 11 -37 0 -104 70 -122 127 -20
66 -9 189 22 238 37 58 77 95 104 95 12 0 26 5 29 10 3 6 24 10 45 10 21 0 42
-4 45 -10 3 -5 17 -10 31 -10 13 0 33 -5 43 -12 34 -21 51 -3 51 51 0 46 -3
51 -32 65 -37 19 -229 21 -265 4z"/>
<path d="M8063 1124 c-56 -27 -137 -109 -157 -159 -29 -71 -46 -228 -26 -240
6 -3 10 -21 10 -39 0 -19 6 -46 14 -61 23 -44 109 -135 128 -135 10 0 18 -4
18 -10 0 -5 9 -10 19 -10 11 0 23 -4 26 -10 3 -6 49 -10 103 -10 79 0 103 4
130 20 18 11 37 20 43 20 10 0 84 70 108 102 33 44 51 123 51 225 0 57 -4 105
-10 108 -5 3 -10 15 -10 26 0 40 -95 158 -127 159 -7 0 -13 5 -13 10 0 6 -9
10 -19 10 -11 0 -23 5 -26 10 -3 6 -51 10 -108 10 -88 -1 -109 -4 -154 -26z
m195 -83 c9 -5 30 -15 46 -22 15 -7 41 -33 58 -56 28 -41 29 -50 31 -151 2
-115 -8 -155 -51 -204 -38 -43 -160 -76 -177 -48 -3 5 -16 10 -28 10 -27 0
-107 82 -107 109 0 11 -4 23 -10 26 -14 9 -12 149 2 199 29 96 162 174 236
137z"/>
<path d="M8882 1136 c-12 -7 -36 -25 -52 -40 -16 -14 -32 -26 -34 -26 -3 0 -6
12 -8 28 -3 26 -6 27 -61 30 l-57 3 2 -328 3 -328 55 0 55 0 3 200 c1 113 7
204 12 209 6 6 10 23 10 40 0 61 89 136 146 122 32 -8 89 -51 100 -74 4 -9 10
-125 13 -257 l6 -240 39 -3 c22 -2 49 -1 62 2 22 6 22 7 26 230 2 163 6 228
16 238 6 6 12 20 12 29 0 22 83 79 115 79 38 0 102 -40 111 -69 4 -14 10 -134
13 -266 l6 -240 65 0 65 0 3 205 c5 304 -15 381 -113 444 -34 23 -50 26 -123
26 -76 0 -87 -3 -125 -29 -23 -16 -52 -39 -65 -51 -21 -20 -23 -20 -29 -3 -8
20 -43 51 -81 71 -31 15 -160 14 -190 -2z"/>
<path d="M1310 1080 l0 -50 175 0 c96 0 175 -3 175 -6 0 -3 -10 -19 -22 -34
-13 -16 -39 -51 -58 -79 -19 -28 -40 -51 -46 -51 -6 0 -28 -26 -50 -57 -21
-32 -42 -59 -46 -61 -5 -2 -8 -10 -8 -18 0 -8 -4 -14 -8 -14 -5 0 -15 -12 -23
-27 -8 -16 -25 -40 -39 -54 -41 -43 -94 -139 -83 -150 6 -6 118 -8 289 -7
l279 3 3 48 3 47 -191 0 -191 0 12 22 c6 12 20 31 30 42 11 11 19 23 19 28 0
4 6 8 13 8 13 0 67 63 67 78 0 5 13 22 28 38 16 17 31 36 35 44 4 8 25 40 47
70 23 30 45 65 50 78 5 12 14 22 18 22 17 0 63 81 60 103 -3 22 -4 22 -270 25
l-268 2 0 -50z"/>
<path d="M1950 875 c0 -163 4 -255 10 -255 6 0 10 -9 10 -20 0 -47 36 -92 103
-129 74 -41 247 -17 281 38 8 13 11 12 16 -9 6 -23 10 -25 70 -25 l65 0 0 325
0 325 -65 0 -65 0 -2 -230 c-3 -244 -6 -260 -53 -302 -32 -28 -117 -50 -133
-34 -6 6 -19 11 -28 11 -10 0 -31 17 -46 37 l-28 36 -3 221 c-1 122 -5 231 -7
244 -5 20 -11 22 -65 22 l-60 0 0 -255z"/>
<path d="M7036 581 c-32 -33 -31 -59 5 -104 29 -37 82 -37 121 0 35 33 35 57
2 100 -34 45 -87 47 -128 4z"/>
</g>
</svg>
